<svg xmlns="http://www.w3.org/2000/svg" width="174" height="66" fill="none"><g clip-path="url(#a)"><path fill="#fff" d="M38.25 15.94V7.97c0-.88-.714-1.594-1.594-1.594h-1.594v-4.78c0-.88-.713-1.594-1.594-1.594-2.256 0-5.711-.173-9.767 2.257-2.522-.75-4.305-.664-6.17-.664-.88 0-1.593.714-1.593 1.594v3.187h-1.594c-.88 0-1.593.714-1.593 1.594v7.968c0 6.49 4.875 11.864 11.155 12.65v20.817a1.594 1.594 0 0 0 3.188 0v-5.578h2.39c4.833 0 8.765-3.932 8.765-8.765v-2.39c0-.88-.713-1.594-1.593-1.594h-3.984a8.725 8.725 0 0 0-5.578 2.009v-4.5c6.27-.776 11.155-6.122 11.155-12.649Zm-3.188 0a9.55 9.55 0 0 1-3.237 7.153c.032-.255.05-.515.05-.779a15.87 15.87 0 0 0-3.991-10.536 12.723 12.723 0 0 1 7.178-2.213v6.374ZM31.875 3.19v3.509c-.295.06-.587.128-.877.205a15.943 15.943 0 0 0-3.5-2.94 12.73 12.73 0 0 1 4.377-.774Zm-12.75 1.594c3.166 0 6.241 1.156 8.632 3.365-.789.407-1.546.882-2.262 1.42a15.87 15.87 0 0 0-6.37-2.871V4.784Zm-3.187 11.155V9.565c7.03 0 12.75 5.719 12.75 12.749a3.19 3.19 0 0 1-3.272 3.186c-5.599-.138-9.478-4.587-9.478-9.56Zm16.734 18.328h2.39v.796a5.584 5.584 0 0 1-5.578 5.578h-2.39v-.797a5.584 5.584 0 0 1 5.578-5.578Z"/></g><path fill="#DD2242" d="M57.852 20.781h-6.458v4.06h7.628V28H47.287V10.965h11.758v3.171h-7.651v3.592h6.458v3.053Zm9.51-4.153 2.785-5.662h4.692l-4.762 8.447L74.967 28H70.23l-2.866-5.768L64.496 28H59.77l4.878-8.587-4.75-8.447h4.68l2.785 5.662Zm13.373 5.592V28h-4.107V10.965h6.797c1.303 0 2.454.242 3.452.726 1.006.476 1.782 1.158 2.328 2.047.554.882.83 1.884.83 3.007 0 1.661-.596 2.991-1.79 3.99-1.185.99-2.815 1.485-4.89 1.485h-2.62Zm0-3.17h2.69c.796 0 1.4-.199 1.814-.597.421-.398.632-.96.632-1.684 0-.796-.215-1.432-.644-1.907-.429-.476-1.014-.718-1.755-.726h-2.737v4.914Zm15.922 5.791h7.148V28H92.55V10.965h4.107v13.876Zm22.872-5.007c0 1.661-.308 3.131-.924 4.41-.616 1.28-1.494 2.266-2.633 2.96-1.131.687-2.422 1.03-3.872 1.03-1.451 0-2.738-.332-3.861-.995-1.123-.67-2.001-1.626-2.632-2.866-.624-1.24-.952-2.663-.983-4.27v-.96c0-1.669.304-3.139.912-4.41.617-1.28 1.494-2.266 2.633-2.96 1.146-.694 2.449-1.041 3.907-1.041 1.443 0 2.73.343 3.861 1.03 1.131.685 2.009 1.664 2.633 2.936.631 1.263.951 2.714.959 4.352v.784Zm-4.177-.714c0-1.693-.284-2.976-.854-3.85-.561-.88-1.369-1.321-2.422-1.321-2.059 0-3.147 1.544-3.264 4.633l-.012 1.252c0 1.669.277 2.952.831 3.849.554.897 1.377 1.345 2.469 1.345 1.037 0 1.837-.44 2.398-1.322.562-.881.846-2.148.854-3.802v-.784Zm12.939 2.866h-2.223V28h-4.106V10.965h6.704c2.02 0 3.599.449 4.738 1.346 1.139.897 1.708 2.164 1.708 3.802 0 1.186-.242 2.169-.725 2.949-.476.78-1.225 1.411-2.247 1.895l3.557 6.867V28h-4.399l-3.007-6.014Zm-2.223-3.17h2.598c.78 0 1.365-.203 1.755-.608.397-.414.596-.987.596-1.72s-.199-1.307-.596-1.72c-.398-.421-.983-.632-1.755-.632h-2.598v4.68Zm22.404 1.965h-6.458v4.06h7.628V28h-11.734V10.965h11.758v3.171h-7.652v3.592h6.458v3.053Z"/><path fill="#fff" d="M51.663 50h-4.095V32.965h4.095V50Zm17.396 0h-4.083l-6.037-10.6V50h-4.106V32.965h4.106l6.025 10.6v-10.6h4.095V50Zm2.913 0V32.965h5.487c1.505 0 2.858.344 4.06 1.03 1.2.679 2.137 1.642 2.807 2.89.679 1.24 1.022 2.632 1.03 4.177v.783c0 1.56-.332 2.96-.994 4.2a7.225 7.225 0 0 1-2.785 2.902c-1.193.694-2.527 1.045-4.001 1.053h-5.604Zm4.106-13.864v10.705h1.427c1.178 0 2.083-.417 2.715-1.252.632-.842.948-2.09.948-3.744v-.737c0-1.645-.316-2.886-.948-3.72-.632-.835-1.552-1.252-2.761-1.252h-1.38Zm26.125 5.698c0 1.661-.309 3.131-.925 4.41-.616 1.28-1.493 2.266-2.632 2.96-1.131.687-2.422 1.03-3.873 1.03-1.45 0-2.737-.331-3.86-.995-1.124-.67-2.001-1.626-2.633-2.866-.624-1.24-.951-2.663-.983-4.27v-.96c0-1.669.305-3.139.913-4.41.616-1.28 1.494-2.266 2.632-2.96 1.147-.694 2.45-1.042 3.908-1.042 1.443 0 2.73.344 3.86 1.03 1.132.686 2.009 1.665 2.633 2.937.632 1.263.952 2.714.96 4.352v.784Zm-4.177-.714c0-1.692-.285-2.975-.854-3.85-.562-.88-1.369-1.321-2.422-1.321-2.06 0-3.147 1.544-3.264 4.633l-.012 1.252c0 1.669.277 2.952.83 3.849.555.897 1.377 1.345 2.47 1.345 1.037 0 1.836-.44 2.398-1.322.561-.881.846-2.149.854-3.802v-.784ZM118.862 50h-4.083l-6.037-10.6V50h-4.107V32.965h4.107l6.025 10.6v-10.6h4.095V50Zm13.477-7.219h-6.458v4.06h7.628V50h-11.734V32.965h11.758v3.171h-7.652v3.592h6.458v3.053Zm11.945 2.691c0-.6-.215-1.068-.644-1.404-.421-.335-1.166-.682-2.234-1.04-1.069-.36-1.942-.707-2.621-1.042-2.207-1.084-3.311-2.574-3.311-4.47 0-.943.273-1.774.819-2.491.554-.726 1.334-1.287 2.34-1.685 1.006-.406 2.137-.609 3.393-.609 1.224 0 2.32.219 3.287.656.975.437 1.732 1.06 2.27 1.872.538.803.807 1.723.807 2.76h-4.094c0-.694-.215-1.232-.644-1.614-.421-.382-.994-.573-1.72-.573-.733 0-1.314.164-1.743.491-.421.32-.632.73-.632 1.229 0 .437.234.834.702 1.193.468.351 1.291.718 2.469 1.1 1.178.374 2.145.78 2.901 1.217 1.841 1.06 2.761 2.523 2.761 4.387 0 1.49-.561 2.66-1.684 3.51-1.123.85-2.664 1.275-4.622 1.275-1.38 0-2.632-.246-3.755-.737-1.116-.5-1.958-1.178-2.527-2.036-.562-.866-.843-1.86-.843-2.983h4.119c0 .912.234 1.587.702 2.024.475.429 1.244.643 2.304.643.679 0 1.213-.144 1.603-.433.398-.296.597-.71.597-1.24ZM155.187 50h-4.095V32.965h4.095V50Zm13.056-3.182h-5.627L161.633 50h-4.387l6.247-17.035h3.861L173.648 50h-4.41l-.995-3.182Zm-4.644-3.17h3.661l-1.836-5.91-1.825 5.91Z"/><defs><clipPath id="a"><path fill="#fff" d="M0 0h51v51H0z"/></clipPath></defs></svg>